<?xml version="1.0"?><svg xmlns="http://www.w3.org/2000/svg"  viewBox="0 0 128 128" width="64px" height="64px">    <path d="M 4 2 C 2.3 2 1 3.3 1 5 L 1 17.5 C 1 19.1 2.3 20.5 4 20.5 L 6.1992188 20.5 L 6.1992188 121 L 4.1992188 121 C 2.4992187 121 1.1992188 122.3 1.1992188 124 C 1.1992188 125.7 2.4992187 127 4.1992188 127 L 9.1992188 127 L 84.199219 127 L 84.599609 127 L 104.59961 127 L 109.59961 127 C 111.29961 127 112.59961 125.7 112.59961 124 C 112.59961 122.3 111.29961 121 109.59961 121 L 107.59961 121 L 107.59961 20.5 L 109.30078 20.5 C 111.00078 20.5 112.30078 19.2 112.30078 17.5 L 112.30078 5 C 112.30078 3.3 111.00078 2 109.30078 2 L 4 2 z M 7 8 L 86.300781 8 L 86.300781 14.5 L 7 14.5 L 7 8 z M 92.199219 8 L 106.19922 8 L 106.19922 14.5 L 92.199219 14.5 L 92.199219 8 z M 12.199219 20.5 L 81.199219 20.5 L 81.199219 121 L 81.099609 121 L 45.300781 121 L 45.300781 72 C 45.300781 70.3 44.000781 69 42.300781 69 L 42.099609 69 L 41.900391 69 L 19.300781 69 C 17.600781 69 16.300781 70.3 16.300781 72 L 16.300781 121 L 12.199219 121 L 12.199219 20.5 z M 22.300781 27.400391 C 20.600781 27.400391 19.300781 28.700391 19.300781 30.400391 L 19.300781 51.199219 C 18.100781 51.599219 17.300781 52.7 17.300781 54 C 17.300781 55.7 18.600781 57 20.300781 57 L 42.099609 57 C 43.799609 57 45.099609 55.7 45.099609 54 C 45.099609 52.7 44.299609 51.599219 43.099609 51.199219 L 43.099609 30.400391 C 43.099609 28.700391 41.799609 27.400391 40.099609 27.400391 L 22.300781 27.400391 z M 53.5 27.400391 C 51.8 27.400391 50.5 28.700391 50.5 30.400391 L 50.5 51.199219 C 49.3 51.599219 48.5 52.7 48.5 54 C 48.5 55.7 49.9 57 51.5 57 L 73.300781 57 C 75.000781 57 76.300781 55.7 76.300781 54 C 76.300781 52.7 75.500781 51.599219 74.300781 51.199219 L 74.300781 30.400391 C 74.300781 28.700391 73.000781 27.400391 71.300781 27.400391 L 53.5 27.400391 z M 25.300781 33.400391 L 37.099609 33.400391 L 37.099609 51 L 25.300781 51 L 25.300781 33.400391 z M 56.5 33.400391 L 68.300781 33.400391 L 68.300781 51 L 56.5 51 L 56.5 33.400391 z M 53.5 69 C 51.8 69 50.5 70.3 50.5 72 L 50.5 92.800781 C 49.3 93.200781 48.5 94.299609 48.5 95.599609 C 48.5 97.299609 49.9 98.599609 51.5 98.599609 L 73.300781 98.599609 C 75.000781 98.599609 76.300781 97.299609 76.300781 95.599609 C 76.300781 94.299609 75.500781 93.200781 74.300781 92.800781 L 74.300781 72 C 74.300781 70.3 73.000781 69 71.300781 69 L 53.5 69 z M 22.300781 75 L 39.300781 75 L 39.300781 121 L 22.300781 121 L 22.300781 75 z M 56.5 75 L 68.300781 75 L 68.300781 92.599609 L 56.5 92.599609 L 56.5 75 z M 124.5 121 A 3 3 0 0 0 121.5 124 A 3 3 0 0 0 124.5 127 A 3 3 0 0 0 127.5 124 A 3 3 0 0 0 124.5 121 z"/></svg>