<svg xmlns="http://www.w3.org/2000/svg"  viewBox="0 0 72 72" width="64px" height="64px"><path d="M37.911,41.902l-7.403,5.842l2.281,7.703c0.281,0.978,0,1.948-0.791,2.738l-0.691,0.691c-1.48,1.482-2.856,0.037-2.893,0	L13.123,43.585c-0.037-0.037-1.483-1.411,0-2.894l0.691-0.691c0.225-0.225,1.223-1.225,2.731-0.792l7.709,2.283l5.842-7.403	l-16.812-6.17c-1.381-0.461-1.668-2.07-0.753-2.987l1.913-1.912c0.048-0.048,0.916-1.042,2.621-0.954l22.966,0.816	c0.827,0.036,1.075-0.048,1.761-0.734l6.506-6.506c1.104-1.104,2.294-1.983,3.54-2.613c1.285-0.65,2.528-0.995,3.694-1.026	c1.99-0.026,2.941,0.888,3.249,1.183c0.851,0.886,1.249,1.979,1.215,3.279c-0.031,1.169-0.378,2.413-1.028,3.697	c-0.629,1.245-1.508,2.435-2.611,3.538l-6.506,6.507c-0.688,0.688-0.774,0.94-0.734,1.756l0.817,22.981	c0.056,1.024-0.274,1.93-0.954,2.611l-1.912,1.912c-0.922,0.926-2.525,0.637-3.002-0.792L37.911,41.902z"/></svg>