<?xml version="1.0"?><svg xmlns="http://www.w3.org/2000/svg"  viewBox="0 0 128 128" width="64px" height="64px">    <path d="M 59.300781 34 C 53.100781 34 48 38.9 48 45 C 48 46.7 49.3 48 51 48 C 52.7 48 54 46.7 54 45 C 54 42.2 56.400781 40 59.300781 40 L 68.699219 40 C 71.599219 40 74 42.2 74 45 C 74 46.7 75.3 48 77 48 C 78.7 48 80 46.7 80 45 C 80 38.9 74.899219 34 68.699219 34 L 59.300781 34 z M 29 48 C 27.3 48 26 49.3 26 51 L 19 51 C 14.6 51 11 54.6 11 59 L 11 119 C 11 123.4 14.6 127 19 127 L 109 127 C 113.4 127 117 123.4 117 119 L 117 59 C 117 54.6 113.4 51 109 51 L 102 51 C 102 49.3 100.7 48 99 48 C 97.3 48 96 49.3 96 51 L 32 51 C 32 49.3 30.7 48 29 48 z M 29 63.199219 C 30.7 63.199219 32 64.499219 32 66.199219 L 32 121 L 26 121 L 26 66.199219 C 26 64.499219 27.3 63.199219 29 63.199219 z M 99 63.199219 C 100.7 63.199219 102 64.499219 102 66.199219 L 102 121 L 96 121 L 96 66.199219 C 96 64.499219 97.3 63.199219 99 63.199219 z M 53.898438 65.103516 C 55.075 65.150391 56.125 65.899609 56.5 67.099609 L 59.599609 75.599609 C 60.099609 77.099609 59.300781 78.800391 57.800781 79.400391 L 44.599609 84.199219 C 42.999609 84.799219 41.300781 84.000391 40.800781 82.400391 L 37.699219 73.900391 C 37.099219 72.300391 37.9 70.599609 39.5 70.099609 L 52.699219 65.300781 C 53.099219 65.150781 53.50625 65.087891 53.898438 65.103516 z M 66.558594 85.003906 C 66.938281 84.988281 67.324219 85.049219 67.699219 85.199219 L 90.300781 93.400391 C 91.900781 94.000391 92.699609 95.700781 92.099609 97.300781 L 87.300781 110.5 C 86.700781 112.1 85 112.90078 83.5 112.30078 L 60.900391 104 C 59.300391 103.4 58.499609 101.69922 59.099609 100.19922 L 63.900391 87 C 64.350391 85.8 65.419531 85.050781 66.558594 85.003906 z"/></svg>