<svg xmlns="http://www.w3.org/2000/svg"  viewBox="0 0 72 72" width="64px" height="64px"><path d="M 20 16 C 15.037 16 11 20.038 11 25 L 11 47 C 11 51.962 15.037 56 20 56 L 52 56 C 56.963 56 61 51.962 61 47 L 61 25 C 61 20.038 56.963 16 52 16 L 20 16 z M 39.361328 31 C 40.645328 31 41.335016 31.244891 41.791016 31.462891 L 41.037109 33.517578 C 40.716109 33.352578 39.989688 33.086422 39.179688 33.107422 C 38.309687 33.107422 37.896484 33.455141 37.896484 33.869141 C 37.896484 34.336141 38.536437 34.647453 39.273438 35.064453 C 40.446438 35.669453 41.226562 36.464234 41.226562 37.615234 C 41.226562 39.978234 39.235891 41 37.087891 41 C 35.577891 41 34.601047 40.622828 34.123047 40.298828 L 34.931641 38.28125 C 35.522641 38.61925 36.382312 38.892578 37.320312 38.892578 C 37.996312 38.899578 38.611328 38.640453 38.611328 38.064453 C 38.611328 37.582453 38.180609 37.313906 37.349609 36.878906 C 36.410609 36.381906 35.306641 35.626344 35.306641 34.277344 C 35.306641 32.220344 37.113328 31 39.361328 31 z M 22.179688 31.392578 L 24.607422 31.392578 C 24.607422 31.392578 25.079344 37.169438 25.152344 38.273438 L 25.179688 38.273438 C 25.575688 37.230437 28.214844 31.392578 28.214844 31.392578 L 30.847656 31.392578 L 26.09375 40.607422 L 23.333984 40.607422 L 22.179688 31.392578 z M 31.919922 31.392578 L 34.425781 31.392578 L 32.550781 40.607422 L 30.044922 40.607422 L 31.919922 31.392578 z M 45.726562 31.392578 L 48.818359 31.392578 L 49.820312 40.607422 L 47.322266 40.607422 L 47.216797 38.439453 L 44.746094 38.439453 L 43.816406 40.607422 L 41.277344 40.607422 L 45.726562 31.392578 z M 46.882812 33.132812 C 46.642812 33.703812 45.417969 36.680688 45.417969 36.679688 L 47.128906 36.679688 C 47.128906 36.679688 46.955156 33.703812 46.910156 33.132812 L 46.882812 33.132812 z"/></svg>