<svg xmlns="http://www.w3.org/2000/svg" xmlns:xlink="http://www.w3.org/1999/xlink" viewBox="0,0,256,256" width="64px" height="64px"><g fill="#ffffff" fill-rule="nonzero" stroke="none" stroke-width="1" stroke-linecap="butt" stroke-linejoin="miter" stroke-miterlimit="10" stroke-dasharray="" stroke-dashoffset="0" font-family="none" font-weight="none" font-size="none" text-anchor="none" style="mix-blend-mode: normal"><g transform="scale(2,2)"><path d="M4,2c-1.7,0 -3,1.3 -3,3v12.5c0,1.6 1.3,3 3,3h2.19922v100.5h-2c-1.7,0 -3,1.3 -3,3c0,1.7 1.3,3 3,3h5h75h0.40039h20h5c1.7,0 3,-1.3 3,-3c0,-1.7 -1.3,-3 -3,-3h-2v-100.5h1.70117c1.7,0 3,-1.3 3,-3v-12.5c0,-1.7 -1.3,-3 -3,-3zM7,8h79.30078v6.5h-79.30078zM92.19922,8h14v6.5h-14zM12.19922,20.5h69v100.5h-0.09961h-35.79883v-49c0,-1.7 -1.3,-3 -3,-3h-0.20117h-0.19922h-22.59961c-1.7,0 -3,1.3 -3,3v49h-4.10156zM22.30078,27.40039c-1.7,0 -3,1.3 -3,3v20.79883c-1.2,0.4 -2,1.50078 -2,2.80078c0,1.7 1.3,3 3,3h21.79883c1.7,0 3,-1.3 3,-3c0,-1.3 -0.8,-2.40078 -2,-2.80078v-20.79883c0,-1.7 -1.3,-3 -3,-3zM53.5,27.40039c-1.7,0 -3,1.3 -3,3v20.79883c-1.2,0.4 -2,1.50078 -2,2.80078c0,1.7 1.4,3 3,3h21.80078c1.7,0 3,-1.3 3,-3c0,-1.3 -0.8,-2.40078 -2,-2.80078v-20.79883c0,-1.7 -1.3,-3 -3,-3zM25.30078,33.40039h11.79883v17.59961h-11.79883zM56.5,33.40039h11.80078v17.59961h-11.80078zM53.5,69c-1.7,0 -3,1.3 -3,3v20.80078c-1.2,0.4 -2,1.49883 -2,2.79883c0,1.7 1.4,3 3,3h21.80078c1.7,0 3,-1.3 3,-3c0,-1.3 -0.8,-2.39883 -2,-2.79883v-20.80078c0,-1.7 -1.3,-3 -3,-3zM22.30078,75h17v46h-17zM56.5,75h11.80078v17.59961h-11.80078zM124.5,121c-1.65685,0 -3,1.34315 -3,3c0,1.65685 1.34315,3 3,3c1.65685,0 3,-1.34315 3,-3c0,-1.65685 -1.34315,-3 -3,-3z"></path></g></g></svg>