<svg xmlns="http://www.w3.org/2000/svg" xmlns:xlink="http://www.w3.org/1999/xlink" viewBox="0,0,256,256" width="64px" height="64px"><g fill="#ffffff" fill-rule="nonzero" stroke="none" stroke-width="1" stroke-linecap="butt" stroke-linejoin="miter" stroke-miterlimit="10" stroke-dasharray="" stroke-dashoffset="0" font-family="none" font-weight="none" font-size="none" text-anchor="none" style="mix-blend-mode: normal"><g transform="scale(2,2)"><path d="M59.30078,34c-6.2,0 -11.30078,4.9 -11.30078,11c0,1.7 1.3,3 3,3c1.7,0 3,-1.3 3,-3c0,-2.8 2.40078,-5 5.30078,-5h9.39844c2.9,0 5.30078,2.2 5.30078,5c0,1.7 1.3,3 3,3c1.7,0 3,-1.3 3,-3c0,-6.1 -5.10078,-11 -11.30078,-11zM29,48c-1.7,0 -3,1.3 -3,3h-7c-4.4,0 -8,3.6 -8,8v60c0,4.4 3.6,8 8,8h90c4.4,0 8,-3.6 8,-8v-60c0,-4.4 -3.6,-8 -8,-8h-7c0,-1.7 -1.3,-3 -3,-3c-1.7,0 -3,1.3 -3,3h-64c0,-1.7 -1.3,-3 -3,-3zM29,63.19922c1.7,0 3,1.3 3,3v54.80078h-6v-54.80078c0,-1.7 1.3,-3 3,-3zM99,63.19922c1.7,0 3,1.3 3,3v54.80078h-6v-54.80078c0,-1.7 1.3,-3 3,-3zM53.89844,65.10352c1.17656,0.04688 2.22656,0.79609 2.60156,1.99609l3.09961,8.5c0.5,1.5 -0.29883,3.20078 -1.79883,3.80078l-13.20117,4.79883c-1.6,0.6 -3.29883,-0.19883 -3.79883,-1.79883l-3.10156,-8.5c-0.6,-1.6 0.20078,-3.30078 1.80078,-3.80078l13.19922,-4.79883c0.4,-0.15 0.80703,-0.21289 1.19922,-0.19727zM66.55859,85.00391c0.37969,-0.01562 0.76563,0.04531 1.14063,0.19531l22.60156,8.20117c1.6,0.6 2.39883,2.30039 1.79883,3.90039l-4.79883,13.19922c-0.6,1.6 -2.30078,2.40078 -3.80078,1.80078l-22.59961,-8.30078c-1.6,-0.6 -2.40078,-2.30078 -1.80078,-3.80078l4.80078,-13.19922c0.45,-1.2 1.51914,-1.94922 2.6582,-1.99609z"></path></g></g></svg>