<svg xmlns="http://www.w3.org/2000/svg" xmlns:xlink="http://www.w3.org/1999/xlink" viewBox="0,0,256,256" width="64px" height="64px"><g fill="#ffffff" fill-rule="nonzero" stroke="none" stroke-width="1" stroke-linecap="butt" stroke-linejoin="miter" stroke-miterlimit="10" stroke-dasharray="" stroke-dashoffset="0" font-family="none" font-weight="none" font-size="none" text-anchor="none" style="mix-blend-mode: normal"><g transform="scale(3.55556,3.55556)"><path d="M20,16c-4.963,0 -9,4.038 -9,9v22c0,4.962 4.037,9 9,9h32c4.963,0 9,-4.038 9,-9v-22c0,-4.962 -4.037,-9 -9,-9zM39.36133,31c1.284,0 1.97369,0.24489 2.42969,0.46289l-0.75391,2.05469c-0.321,-0.165 -1.04742,-0.43116 -1.85742,-0.41016c-0.87,0 -1.2832,0.34772 -1.2832,0.76172c0,0.467 0.63995,0.77831 1.37695,1.19531c1.173,0.605 1.95312,1.39978 1.95312,2.55078c0,2.363 -1.99067,3.38477 -4.13867,3.38477c-1.51,0 -2.48684,-0.37717 -2.96484,-0.70117l0.80859,-2.01758c0.591,0.338 1.45067,0.61133 2.38867,0.61133c0.676,0.007 1.29102,-0.25212 1.29102,-0.82812c0,-0.482 -0.43072,-0.75055 -1.26172,-1.18555c-0.939,-0.497 -2.04297,-1.25256 -2.04297,-2.60156c0,-2.057 1.80669,-3.27734 4.05469,-3.27734zM22.17969,31.39258h2.42773c0,0 0.47192,5.77686 0.54492,6.88086h0.02734c0.396,-1.043 3.03516,-6.88086 3.03516,-6.88086h2.63281l-4.75391,9.21484h-2.75977zM31.91992,31.39258h2.50586l-1.875,9.21484h-2.50586zM45.72656,31.39258h3.0918l1.00195,9.21484h-2.49805l-0.10547,-2.16797h-2.4707l-0.92969,2.16797h-2.53906zM46.88281,33.13281c-0.24,0.571 -1.46484,3.54788 -1.46484,3.54688h1.71094c0,0 -0.17375,-2.97588 -0.21875,-3.54688z"></path></g></g></svg>